# xmcd
#
# Track frame offsets:
#	150
#	10538
#	22390
#	36859
#	50237
#	69408
#	80993
#	93670
#	104507
#	117317
#	131185
#	149110
#	170564
#	183601
#	196215
#
# Disc length: 2975 seconds
#
# Revision: 4
# Processed by: cddbd v1.5.2PL0 Copyright (c) Steve Scherf et al.
# Submitted via: EasyCDDAExtractor 16.0.6.1
#
DISCID=ec0b9d0f
DTITLE=Van Morrison - C-123 Pay The Devil
DYEAR=2006
DGENRE=Country
TTITLE0=There Stands The Glass
TTITLE1=Half As Much
TTITLE2=Things Have Gone To Pieces
TTITLE3=Big Blue Diamonds
TTITLE4=Playhouse
TTITLE5=Your Cheatin' Heart
TTITLE6=Don't You Make Me High
TTITLE7=My Bucket's Got A Hole In It
TTITLE8=Back Street Affair
TTITLE9=Pay The Devil
TTITLE10=What Am I Living For?
TTITLE11=This Has Got To Stop
TTITLE12=Once A Day
TTITLE13=More And More
TTITLE14=Till I Gain Control Again
EXTD=
EXTT0=
EXTT1=
EXTT2=
EXTT3=
EXTT4=
EXTT5=
EXTT6=
EXTT7=
EXTT8=
EXTT9=
EXTT10=
EXTT11=
EXTT12=
EXTT13=
EXTT14=
PLAYORDER=
